# xmcd
#
# Track frame offsets:
#	150
#	16258
#	36058
#	55869
#	70623
#	88306
#	103402
#	121812
#	140331
#	159166
#	176694
#	192802
#	212602
#	232431
#	247185
#	264868
#	279964
#	298374
#	316893
#	335727
#
# Disc length: 4710 seconds
#
# Revision: 2
# Processed by: cddbd v1.5.2PL0 Copyright (c) Steve Scherf et al.
# Submitted via: audiograbber 1.83.01
#
DISCID=2b126414
DTITLE=THM0712 - Top Hits Monthly (THM) 
DYEAR=2007
DGENRE=Karaoke
TTITLE0=Brooks, Garth - More Than A Memory (W - Vocals)
TTITLE1=Chesney, Kenny - Don't Blink (W - Vocals)
TTITLE2=Urban, Keith - Everybody (W - Vocals)
TTITLE3=Eagles - How Long (W - Vocals)
TTITLE4=Big and Rich - Between Raising Hell And Amazing Grace (W - Vocals)
TTITLE5=Swift, Taylor - Our Song (W - Vocals)
TTITLE6=Little Big Town - I'm With The Band (W - Vocals)
TTITLE7=Krauss, Alison - Simple Love (W - Vocals)
TTITLE8=Bon Jovi and LeAnn Rimes - Til We Ain't Strangers Anymore (W - Vocals)
TTITLE9=Strait, George - How 'Bout Them Cowgirls (W - Vocals)
TTITLE10=Garth Brooks - More Than A Memory (THM) 
TTITLE11=Kenny Chesney - Don't Blink (THM) 
TTITLE12=Keith Urban - Everybody (THM) 
TTITLE13=The Eagles - How Long (THM) 
TTITLE14=Big and Rich - Between Raising Hell And Amazing Grace (THM) 
TTITLE15=Taylor Swift - Our Song (THM) 
TTITLE16=Little Big Town - I'm With The Band (THM) 
TTITLE17=Alison Krauss - Simple Love (THM) 
TTITLE18=Bon Jovi and LeAnn Rimes - Til We Ain't Strangers Anymore (THM) 
TTITLE19=George Strait - How 'Bout Them Cowgirls (THM) 
EXTD=
EXTT0=
EXTT1=
EXTT2=
EXTT3=
EXTT4=
EXTT5=
EXTT6=
EXTT7=
EXTT8=
EXTT9=
EXTT10=
EXTT11=
EXTT12=
EXTT13=
EXTT14=
EXTT15=
EXTT16=
EXTT17=
EXTT18=
EXTT19=
PLAYORDER=
